<?xml version="1.0" standalone="no"?><!DOCTYPE svg PUBLIC "-//W3C//DTD SVG 1.1//EN" "http://www.w3.org/Graphics/SVG/1.1/DTD/svg11.dtd"><svg t="1610335824537" class="icon" viewBox="0 0 1024 1024" version="1.1" xmlns="http://www.w3.org/2000/svg" p-id="1344" xmlns:xlink="http://www.w3.org/1999/xlink" width="200" height="200"><defs><style type="text/css"></style></defs><path d="M192.00016 608.230978A95.991001 95.991001 0 0 1 287.831176 512.047996h448.277974A95.991001 95.991001 0 0 1 831.940166 608.230978V768.023998a255.976002 255.976002 0 0 1-255.912009 255.976002H447.912168C306.645412 1024 192.00016 909.22676 192.00016 768.023998v-159.79302z m63.994001 0V768.023998c0 105.878074 86.007937 191.982002 191.918007 191.982001h128.115989A191.982002 191.982002 0 0 0 767.946165 768.023998v-159.79302A31.997 31.997 0 0 0 736.10915 576.041996H287.831176A31.997 31.997 0 0 0 255.994161 608.230978zM351.985161 223.979002V512.047996H287.991161V223.979002a223.979002 223.979002 0 1 1 447.958004 0V320.065994s0 31.997-31.997001 31.997-31.997-31.997-31.997-31.997V223.979002a159.985001 159.985001 0 0 0-319.970003 0zM511.970163 864.014999a95.991001 95.991001 0 1 1 0-191.982002 95.991001 95.991001 0 0 1 0 191.982002z m0-31.997001a63.994001 63.994001 0 1 0 0-127.988001 63.994001 63.994001 0 0 0 0 127.988001z" fill="#5E676F" p-id="1345"></path></svg>