<?xml version="1.0" standalone="no"?><!DOCTYPE svg PUBLIC "-//W3C//DTD SVG 1.1//EN" "http://www.w3.org/Graphics/SVG/1.1/DTD/svg11.dtd"><svg t="1610335818830" class="icon" viewBox="0 0 1024 1024" version="1.1" xmlns="http://www.w3.org/2000/svg" p-id="1214" xmlns:xlink="http://www.w3.org/1999/xlink" width="200" height="200"><defs><style type="text/css"></style></defs><path d="M192.00016 608.230978V768.023998c0 141.202762 114.645252 255.976002 255.912008 255.976002h128.115989A255.976002 255.976002 0 0 0 831.940166 768.023998v-159.79302A95.991001 95.991001 0 0 0 736.10915 512.047996H287.831176A95.991001 95.991001 0 0 0 192.00016 608.230978z m63.994001 0A31.997 31.997 0 0 1 287.831176 576.041996h448.277974A31.997 31.997 0 0 1 767.946165 608.230978V768.023998a191.982002 191.982002 0 0 1-191.918008 191.982001H447.912168A192.10999 192.10999 0 0 1 255.994161 768.023998v-159.79302zM351.985161 512.047996V223.979002a159.985001 159.985001 0 1 1 319.970003 0V512.047996h63.994001V223.979002a223.979002 223.979002 0 0 0-447.958004 0V512.047996h63.994z m159.985002 351.967003a95.991001 95.991001 0 1 1 0-191.982002 95.991001 95.991001 0 0 1 0 191.982002z m0-31.997001a63.994001 63.994001 0 1 0 0-127.988001 63.994001 63.994001 0 0 0 0 127.988001z" fill="#5E676F" p-id="1215"></path></svg>